# File created by Blade
# Date/Time:  Wed Jan 21 17:41:05 2015
#---------------------------------------------------------
:version 1.10
:name HOM
:units
  mass 1.0
  length 1.000000
  angle deg
:documentation
     Acclaim Skeleton File
:root
   axis xyz
   order TX TY TZ RX RY RZ
   position 0.000000 0.000000 0.000000
   orientation 0 0 0
:bonedata
   begin
      id 1
      name Spine_dum
      direction 0.000000 1.000000 0.000000
      length 7.067664
      axis 0.0 0.0 0.0 xyz
   end
   begin
      id 2
      name LeftUpLeg_dum
      direction 1.000000 0.000000 0.000000
      length 4.013002
      axis 0.0 0.0 0.0 xyz
   end
   begin
      id 3
      name RightUpLeg_dum
      direction -1.000000 0.000000 0.000000
      length 4.013002
      axis 0.0 0.0 0.0 xyz
   end
   begin
      id 4
      name Spine
      direction 0.000000 1.000000 0.000000
      length 0.000000
      axis 0.0 0.0 0.0 xyz
      dof rx ry rz
   end
   begin
      id 5
      name Spine_dum1
      direction 0.000000 1.000000 0.000000
      length 15.039886
      axis 0.0 0.0 0.0 xyz
   end
   begin
      id 6
      name Spine_dum2
      direction 0.000000 1.000000 0.000000
      length 10.530368
      axis 0.0 0.0 0.0 xyz
   end
   begin
      id 7
      name Spine_dum3
      direction 0.000000 1.000000 0.000000
      length 10.530368
      axis 0.0 0.0 0.0 xyz
   end
   begin
      id 8
      name Head
      direction 0.000000 1.000000 0.000000
      length 4.527550
      axis 0.0 0.0 0.0 xyz
      dof rx ry rz
   end
   begin
      id 9
      name LeftShoulder
      direction 1.000000 0.000000 0.000000
      length 7.028855
      axis 0.0 0.0 -90.0 xyz
      dof rx ry rz
   end
   begin
      id 10
      name LeftArm
      direction 1.000000 0.000000 0.000000
      length 10.797705
      axis 0.0 0.0 -90.0 xyz
      dof rx ry rz
   end
   begin
      id 11
      name LeftForeArm
      direction 1.000000 0.000000 0.000000
      length 7.907442
      axis 0.0 0.0 -90.0 xyz
      dof ry rz rx
   end
   begin
      id 12
      name LeftHand
      direction 0.000000 0.000000 0.000000
      length 0.000000
      axis 0.0 0.0 -90.0 xyz
      dof rx ry rz
   end
   begin
      id 13
      name LeftHand_dum1
      direction 0.000000 0.000000 0.000000
      length 0.000000
      axis 0.0 0.0 -90.0 xyz
   end
   begin
      id 14
      name LeftHand_dum2
      direction 1.000000 0.000000 0.000000
      length 3.937000
      axis 0.0 0.0 -90.0 xyz
   end
   begin
      id 15
      name LeftHandThumb1
      direction 0.000000 0.000000 1.000000
      length 3.937000
      axis 0.0 0.0 -90.0 xyz
      dof rx rz ry
   end
   begin
      id 16
      name RightShoulder
      direction -1.000000 0.000000 0.000000
      length 7.028855
      axis 0.0 0.0 90.0 xyz
      dof rx ry rz
   end
   begin
      id 17
      name RightArm
      direction -1.000000 0.000000 0.000000
      length 10.797705
      axis 0.0 0.0 90.0 xyz
      dof rx ry rz
   end
   begin
      id 18
      name RightForeArm
      direction -1.000000 0.000000 0.000000
      length 7.907442
      axis 0.0 0.0 90.0 xyz
      dof ry rz rx
   end
   begin
      id 19
      name RightHand
      direction 0.000000 0.000000 0.000000
      length 0.000000
      axis 0.0 0.0 90.0 xyz
      dof rx ry rz
   end
   begin
      id 20
      name RightHand_dum1
      direction 0.000000 0.000000 0.000000
      length 0.000000
      axis 0.0 0.0 90.0 xyz
   end
   begin
      id 21
      name RightHand_dum2
      direction -1.000000 0.000000 0.000000
      length 3.937000
      axis 0.0 0.0 90.0 xyz
   end
   begin
      id 22
      name RightHandThumb1
      direction 0.000000 0.000000 1.000000
      length 3.937000
      axis 0.0 0.0 90.0 xyz
      dof rx rz ry
   end
   begin
      id 23
      name LeftUpLeg
      direction 0.000000 -1.000000 0.000000
      length 16.899758
      axis 0.0 0.0 0.0 xyz
      dof rx ry rz
   end
   begin
      id 24
      name LeftLeg
      direction 0.000000 -1.000000 0.000000
      length 17.389183
      axis 0.0 0.0 0.0 xyz
      dof rx ry rz
   end
   begin
      id 25
      name LeftFoot
      direction 0.000000 -0.258819 0.965926
      length 4.924528
      axis 15.0 0.0 0.0 xyz
      dof rx ry rz
   end
   begin
      id 26
      name LeftToeBase
      direction 0.000000 0.000000 1.000000
      length 2.952750
      axis 0.0 0.0 0.0 xyz
      dof rx ry rz
   end
   begin
      id 27
      name RightUpLeg
      direction 0.000000 -1.000000 0.000000
      length 16.899758
      axis 0.0 0.0 0.0 xyz
      dof rx ry rz
   end
   begin
      id 28
      name RightLeg
      direction 0.000000 -1.000000 0.000000
      length 17.389183
      axis 0.0 0.0 0.0 xyz
      dof rx ry rz
   end
   begin
      id 29
      name RightFoot
      direction 0.000000 -0.258819 0.965926
      length 4.924528
      axis 15.0 0.0 0.0 xyz
      dof rx ry rz
   end
   begin
      id 30
      name RightToeBase
      direction 0.000000 0.000000 1.000000
      length 2.952750
      axis 0.0 0.0 0.0 xyz
      dof rx ry rz
   end
:hierarchy
   begin
      root Spine_dum LeftUpLeg_dum RightUpLeg_dum
      Spine_dum Spine
      LeftUpLeg_dum LeftUpLeg
      RightUpLeg_dum RightUpLeg
      Spine Spine_dum1 Spine_dum2 Spine_dum3
      Spine_dum1 Head
      Spine_dum2 LeftShoulder
      Spine_dum3 RightShoulder
      LeftShoulder LeftArm
      LeftArm LeftForeArm
      LeftForeArm LeftHand
      LeftHand LeftHand_dum1 LeftHand_dum2
      LeftHand_dum1 LeftHandThumb1
      RightShoulder RightArm
      RightArm RightForeArm
      RightForeArm RightHand
      RightHand RightHand_dum1 RightHand_dum2
      RightHand_dum1 RightHandThumb1
      LeftUpLeg LeftLeg
      LeftLeg LeftFoot
      LeftFoot LeftToeBase
      RightUpLeg RightLeg
      RightLeg RightFoot
      RightFoot RightToeBase
   end

# File created by Blade
# Date/Time:  Wed Jan 21 17:41:14 2015
# Frame Rate: 120.000 fps
#------------------------------------------------------
:FULLY-SPECIFIED
:DEGREES
63
root 16.990971 35.489137 -23.868025 -170.593709 87.724879 -164.418365
Spine -0.474446 -1.675437 -2.169744
Head 2.520184 -2.027737 1.145451
LeftShoulder -10.583927 -38.141422 26.007273
LeftArm 10.126320 -0.453023 -1.295539
LeftForeArm 5.562142 -0.000000 -3.358392
LeftHand -9.759679 -0.000000 -2.794899
LeftHandThumb1 -26.253704 0.000000 33.147579
RightShoulder -10.158189 -2.659803 -13.783539
RightArm 8.620228 42.400411 4.439252
RightForeArm -32.930383 -0.000000 3.959533
RightHand -7.188966 -0.000000 5.131773
RightHandThumb1 -24.326973 -0.000000 -32.862282
LeftUpLeg 13.530622 7.062485 -0.203523
LeftLeg -0.717369 -0.000000 0.000000
LeftFoot -22.545918 25.726549 -10.921890
LeftToeBase 23.343669 -0.000000 -0.000000
RightUpLeg 11.691245 -8.940182 -0.663012
RightLeg 3.195120 -0.000000 -0.000000
RightFoot -24.630342 -23.630217 14.321798
RightToeBase 23.663792 -0.000000 -0.000000
64
root 16.968038 35.492383 -23.868824 -170.785047 87.752808 -164.578120
Spine -0.419986 -1.631967 -2.208768
Head 2.561326 -1.993764 1.160406
LeftShoulder -10.405208 -38.444680 26.216265
LeftArm 10.494835 -0.456792 -1.131734
LeftForeArm 5.285318 -0.000000 -3.347840
LeftHand -9.723946 0.000000 -2.740073
LeftHandThumb1 -26.253704 0.000000 33.147579
RightShoulder -10.045737 -2.416483 -14.018247
RightArm 8.836608 42.419948 4.169219
RightForeArm -32.812155 -0.000000 3.964166
RightHand -7.131131 -0.000000 5.122202
RightHandThumb1 -24.326973 -0.000000 -32.862282
LeftUpLeg 13.319746 7.131740 -0.211733
LeftLeg -0.312503 -0.000000 0.000000
LeftFoot -22.703502 25.664325 -10.976210
LeftToeBase 23.269170 -0.000000 -0.000000
RightUpLeg 11.421966 -8.902522 -0.660234
RightLeg 3.690081 -0.000000 -0.000000
RightFoot -24.840505 -23.630350 14.482610
RightToeBase 23.749010 -0.000000 -0.000000
65
root 16.946525 35.495678 -23.879745 -169.839457 87.920891 -163.587901
Spine -0.375829 -1.465514 -2.154967
Head 2.651024 -1.952623 1.051055
LeftShoulder -10.234187 -38.727904 26.357395
LeftArm 10.874312 -0.484891 -0.966234
LeftForeArm 5.071852 -0.000000 -3.325665
LeftHand -9.744712 -0.000000 -2.700074
LeftHandThumb1 -26.253704 0.000000 33.147579
RightShoulder -9.894350 -2.213855 -14.319119
RightArm 9.060338 42.633505 3.906056
RightForeArm -32.925271 -0.000000 3.993932
RightHand -6.972208 0.000000 5.068757
RightHandThumb1 -24.326973 -0.000000 -32.862282
LeftUpLeg 13.175206 7.304265 -0.229743
LeftLeg 0.017712 -0.000000 -0.000000
LeftFoot -22.839192 25.659630 -11.152117
LeftToeBase 23.145130 -0.000000 -0.000000
RightUpLeg 11.114225 -8.713541 -0.657614
RightLeg 4.264990 -0.000000 -0.000000
RightFoot -25.068555 -23.603238 14.654312
RightToeBase 23.623078 -0.000000 -0.000000
66
root 16.928943 35.496594 -23.888370 -169.674058 88.021431 -163.315872
Spine -0.250712 -1.367501 -2.148581
Head 2.714278 -1.951404 1.004446
LeftShoulder -10.061293 -38.897895 26.514090
LeftArm 11.313002 -0.592244 -0.793210
LeftForeArm 4.709351 0.000000 -3.355017
LeftHand -9.758734 -0.000000 -2.613647
LeftHandThumb1 -26.253704 0.000000 33.147579
RightShoulder -9.757846 -1.967759 -14.646352
RightArm 9.274787 42.848107 3.710091
RightForeArm -33.061368 -0.000000 4.124823
RightHand -6.953199 -0.000000 5.117847
RightHandThumb1 -24.326973 -0.000000 -32.862282
LeftUpLeg 13.071940 7.419751 -0.247919
LeftLeg 0.388948 -0.000000 -0.000000
LeftFoot -23.016565 25.662279 -11.243297
LeftToeBase 23.124848 -0.000000 -0.000000
RightUpLeg 10.889475 -8.654214 -0.691323
RightLeg 4.829814 -0.000000 -0.000000
RightFoot -25.291059 -23.535337 14.797216
RightToeBase 23.566137 -0.000000 -0.000000
67
root 16.903783 35.498151 -23.879076 -171.977594 87.889443 -165.627610
Spine -0.253126 -1.482157 -2.309221
Head 2.799283 -1.959454 1.144547
LeftShoulder -9.841271 -39.192005 26.795403
LeftArm 11.701110 -0.615265 -0.632619
LeftForeArm 4.442794 -0.000000 -3.318978
LeftHand -9.754634 -0.000000 -2.543209
LeftHandThumb1 -26.253704 0.000000 33.147579
RightShoulder -9.656851 -1.645347 -14.853398
RightArm 9.547464 42.750163 3.448100
RightForeArm -32.957519 -0.000000 4.116147
RightHand -7.105441 -0.000000 5.013304
RightHandThumb1 -24.326973 -0.000000 -32.862282
LeftUpLeg 12.745456 7.278500 -0.301620
LeftLeg 0.896325 -0.000000 -0.000000
LeftFoot -23.201647 25.630635 -11.313110
LeftToeBase 23.110917 -0.000000 -0.000000
RightUpLeg 10.611939 -8.743895 -0.706598
RightLeg 5.309523 -0.000000 -0.000000
RightFoot -25.523606 -23.626621 14.914063
RightToeBase 23.499206 -0.000000 -0.000000
68
root 16.880366 35.498038 -23.875240 -173.711322 87.819711 -167.325985
Spine -0.199089 -1.521151 -2.432291
Head 2.848693 -1.958732 1.240458
LeftShoulder -9.616569 -39.594017 27.059599
LeftArm 12.083745 -0.607430 -0.474719
LeftForeArm 4.193225 -0.000000 -3.246778
LeftHand -9.846811 -0.000000 -2.475110
LeftHandThumb1 -26.253704 0.000000 33.147579
RightShoulder -9.542732 -1.282483 -15.116638
RightArm 9.760066 42.707382 3.177756
RightForeArm -32.989671 0.000000 4.185694
RightHand -7.187830 -0.000000 4.938723
RightHandThumb1 -24.326973 -0.000000 -32.862282
LeftUpLeg 12.478428 7.176580 -0.358602
LeftLeg 1.396009 -0.000000 -0.000000
LeftFoot -23.417330 25.679214 -11.344579
LeftToeBase 23.265692 -0.000000 -0.000000
RightUpLeg 10.348042 -8.798641 -0.739297
RightLeg 5.835839 -0.000000 -0.000000
RightFoot -25.776040 -23.640232 15.065368
RightToeBase 23.477874 -0.000000 -0.000000
69
root 16.855474 35.498801 -23.876588 -174.254269 87.866759 -167.881254
Spine -0.224015 -1.490345 -2.476725
Head 2.928728 -1.897873 1.263858
LeftShoulder -9.450470 -39.834375 27.274487
LeftArm 12.526335 -0.674745 -0.302080
LeftForeArm 4.016224 -0.000000 -3.203451
LeftHand -9.775630 -0.000000 -2.450339
LeftHandThumb1 -26.253704 0.000000 33.147579
RightShoulder -9.419413 -1.271969 -15.272999
RightArm 10.093848 42.982291 2.817628
RightForeArm -32.967347 -0.000000 4.199719
RightHand -7.190500 -0.000000 4.865669
RightHandThumb1 -24.326973 -0.000000 -32.862282
LeftUpLeg 12.166626 7.173840 -0.411233
LeftLeg 1.903933 -0.000000 -0.000000
LeftFoot -23.655962 25.708809 -11.488202
LeftToeBase 23.258867 -0.000000 -0.000000
RightUpLeg 10.002631 -8.720528 -0.739827
RightLeg 6.389907 -0.000000 -0.000000
RightFoot -26.014331 -23.649910 15.236617
RightToeBase 23.436823 -0.000000 -0.000000
70
root 16.827783 35.498792 -23.879751 -174.707778 87.947653 -168.409940
Spine -0.333148 -1.401514 -2.511893
Head 3.026333 -1.881488 1.278999
LeftShoulder -9.284509 -40.029890 27.462400
LeftArm 13.047278 -0.829750 -0.147623
LeftForeArm 3.638528 -0.000000 -3.185192
LeftHand -9.792222 -0.000000 -2.380651
LeftHandThumb1 -26.253704 0.000000 33.147579
RightShoulder -9.302076 -1.063434 -15.512376
RightArm 10.375977 42.992023 2.458970
RightForeArm -32.885032 -0.000000 4.211360
RightHand -7.297784 -0.000000 4.797146
RightHandThumb1 -24.326973 -0.000000 -32.862282
LeftUpLeg 11.782622 7.204030 -0.477354
LeftLeg 2.431232 -0.000000 -0.000000
LeftFoot -23.883652 25.735838 -11.639396
LeftToeBase 23.174951 -0.000000 -0.000000
RightUpLeg 9.555810 -8.536707 -0.720251
RightLeg 7.001661 -0.000000 -0.000000
RightFoot -26.278333 -23.720196 15.374349
RightToeBase 23.441689 -0.000000 -0.000000
71
root 16.801500 35.496908 -23.879994 -175.595480 87.942916 -169.320814
Spine -0.364824 -1.410143 -2.569590
Head 3.092702 -1.853438 1.316174
LeftShoulder -9.119489 -40.354578 27.715841
LeftArm 13.507171 -0.822144 0.003439
LeftForeArm 3.352715 -0.000000 -3.126317
LeftHand -9.751848 -0.000000 -2.287461
LeftHandThumb1 -26.253704 0.000000 33.147579
RightShoulder -9.149145 -0.780302 -15.786962
RightArm 10.630164 43.079662 2.163609
RightForeArm -33.013706 -0.000000 4.288743
RightHand -7.336321 -0.000000 4.579085
RightHandThumb1 -24.326973 -0.000000 -32.862282
LeftUpLeg 11.412284 7.126715 -0.542062
LeftLeg 3.023357 -0.000000 -0.000000
LeftFoot -24.147503 25.783329 -11.777453
LeftToeBase 23.121437 -0.000000 -0.000000
RightUpLeg 9.196645 -8.424487 -0.706421
RightLeg 7.574835 -0.000000 -0.000000
RightFoot -26.545173 -23.767459 15.602355
RightToeBase 23.317749 -0.000000 -0.000000
72
root 16.774049 35.496178 -23.877776 -176.613030 87.877463 -170.421212
Spine -0.482255 -1.455058 -2.646558
Head 3.195819 -1.847488 1.384887
LeftShoulder -8.939568 -40.552472 27.908281
LeftArm 14.073044 -0.857922 0.198005
LeftForeArm 2.945670 -0.000000 -3.073942
LeftHand -9.764454 -0.000000 -2.223605
LeftHandThumb1 -26.253704 0.000000 33.147579
RightShoulder -9.050986 -0.601361 -16.002867
RightArm 10.942687 43.203846 1.854354
RightForeArm -33.078591 -0.000000 4.332990
RightHand -7.402436 -0.000000 4.345639
RightHandThumb1 -24.326973 -0.000000 -32.862282
LeftUpLeg 10.966609 6.930949 -0.626091
LeftLeg 3.624986 -0.000000 -0.000000
LeftFoot -24.406908 25.883305 -11.937679
LeftToeBase 23.087193 -0.000000 -0.000000
RightUpLeg 8.825332 -8.407195 -0.686465
RightLeg 8.056668 -0.000000 -0.000000
RightFoot -26.772069 -23.850389 15.785333
RightToeBase 23.274364 -0.000000 -0.000000
